# xmcd
#
# Track frame offsets:
#	150
#	25521
#	59299
#	76892
#	95245
#	119372
#	160258
#	190078
#	205453
#	242820
#	267662
#
# Disc length: 4020 seconds
#
# Revision: 1
# Processed by: cddbd v1.5.2PL0 Copyright (c) Steve Scherf et al.
# Submitted via: audiograbber 1.83.01
#
DISCID=970fb20b
DTITLE=Grateful Dead - 69-12-31 Boston Tea Party, Boston MA
DYEAR=1900
DGENRE=
TTITLE0=China Cat Sunflower > Jam
TTITLE1=I Know You Rider
TTITLE2=Mama Tried
TTITLE3=Next Time You See Me
TTITLE4=Cold Rain and Snow
TTITLE5=Black Peter
TTITLE6=Hard To Handle
TTITLE7=Me and My Uncle
TTITLE8=Mason's Children
TTITLE9=Dire Wolf
TTITLE10=Uncle John's Band
EXTD=
EXTT0=
EXTT1=
EXTT2=
EXTT3=
EXTT4=
EXTT5=
EXTT6=
EXTT7=
EXTT8=
EXTT9=
EXTT10=
PLAYORDER=
